<?xml version="1.0" standalone="no"?>
<!DOCTYPE svg PUBLIC "-//W3C//DTD SVG 20010904//EN"
 "http://www.w3.org/TR/2001/REC-SVG-20010904/DTD/svg10.dtd">
<svg version="1.0" xmlns="http://www.w3.org/2000/svg"
 width="2133.000000pt" height="2133.000000pt" viewBox="0 0 2133.000000 2133.000000"
 preserveAspectRatio="xMidYMid meet">
<metadata>
Created by potrace 1.11, written by Peter Selinger 2001-2013
</metadata>
<g transform="translate(0.000000,2133.000000) scale(0.100000,-0.100000)"
fill="#000000" stroke="none">
<path d="M5190 20963 c-488 -18 -970 -104 -1410 -251 -250 -84 -386 -140 -625
-257 -682 -334 -1248 -793 -1739 -1410 -99 -125 -305 -430 -391 -580 -291
-506 -500 -1090 -595 -1660 -67 -405 -62 -163 -70 -3575 -11 -4811 -11 -7983
0 -8170 42 -697 206 -1318 511 -1935 179 -365 382 -675 650 -1000 106 -128
484 -507 614 -614 841 -697 1829 -1092 2910 -1161 221 -14 11029 -14 11250 0
1171 75 2261 544 3100 1333 463 435 804 893 1075 1442 274 556 420 1066 496
1730 16 136 18 324 21 1970 2 1001 -1 3550 -6 5665 -10 4231 -5 3919 -71 4315
-82 485 -236 957 -455 1395 -110 220 -174 330 -320 550 -368 553 -862 1043
-1415 1402 -765 498 -1589 762 -2515 808 -184 9 -10775 12 -11015 3z m2031
-3253 c197 -789 501 -2010 676 -2713 210 -847 320 -1272 325 -1260 5 10 348
1208 763 2663 415 1455 762 2669 770 2698 l16 52 897 0 898 0 768 -2692 c423
-1481 772 -2702 776 -2712 6 -18 221 836 1173 4664 l183 735 727 3 c663 2 727
1 727 -14 0 -9 -21 -96 -46 -193 -25 -97 -63 -243 -84 -326 -21 -82 -100 -388
-175 -680 -75 -291 -156 -608 -181 -702 -96 -375 -138 -537 -264 -1028 -155
-604 -221 -860 -260 -1010 -16 -60 -81 -315 -145 -565 -64 -250 -139 -538
-165 -640 -76 -295 -150 -583 -275 -1070 -64 -250 -139 -538 -165 -640 -26
-102 -105 -406 -174 -676 l-126 -490 1270 -4450 c699 -2447 1273 -4457 1276
-4466 5 -17 -33 -18 -710 -18 l-715 0 -14 53 c-9 28 -84 304 -167 612 -172
636 -367 1352 -475 1750 -40 149 -112 414 -160 590 -47 176 -91 335 -96 352
l-11 33 -814 0 c-448 0 -814 -3 -814 -6 0 -6 -340 -1333 -430 -1679 -16 -60
-117 -454 -225 -875 -108 -421 -201 -780 -206 -797 l-11 -33 -893 0 -893 0
-11 33 c-5 17 -40 149 -76 292 -37 143 -82 319 -100 390 -39 151 -75 290 -260
1010 -75 292 -159 618 -186 725 -108 415 -171 661 -205 798 l-36 142 -812 0
-811 0 -44 -163 c-24 -89 -88 -324 -142 -522 -53 -198 -163 -603 -244 -900
-81 -297 -190 -702 -244 -900 -54 -198 -131 -483 -172 -632 l-74 -273 -712 0
c-451 0 -713 4 -713 10 0 5 572 2011 1271 4457 709 2485 1268 4459 1266 4473
-2 14 -34 140 -70 280 -36 140 -145 563 -242 940 -97 377 -193 753 -215 835
-21 83 -100 389 -175 680 -75 292 -156 607 -180 700 -101 394 -140 546 -265
1030 -72 281 -149 578 -170 660 -34 133 -227 881 -355 1380 -25 99 -66 257
-90 350 -190 736 -295 1148 -295 1161 0 12 97 14 727 12 l727 -3 357 -1435z"/>
<path d="M10576 17192 c-49 -169 -121 -419 -161 -557 -40 -137 -110 -378 -155
-535 -45 -157 -113 -393 -151 -525 -38 -132 -92 -316 -119 -410 -27 -93 -81
-280 -120 -415 -127 -440 -191 -663 -230 -795 -21 -71 -75 -258 -120 -415 -81
-282 -174 -604 -270 -935 -27 -93 -81 -280 -120 -415 -76 -263 -137 -473 -225
-775 -30 -104 -55 -202 -55 -217 0 -15 133 -562 296 -1215 162 -654 405 -1631
540 -2173 135 -542 247 -993 250 -1002 5 -17 48 -18 729 -18 681 0 724 1 729
18 5 16 611 2449 946 3800 l143 574 -86 301 c-88 308 -265 925 -630 2197 -113
393 -298 1039 -412 1435 -114 396 -276 963 -361 1260 -86 297 -192 666 -236
820 -44 154 -83 286 -87 292 -4 7 -46 -125 -95 -295z"/>
<path d="M8092 8603 c-45 -161 -141 -491 -172 -598 -21 -71 -75 -258 -120
-415 -104 -361 -219 -760 -226 -782 -5 -17 23 -18 500 -18 278 0 506 3 506 6
0 5 -211 828 -325 1269 -18 72 -59 229 -90 350 -31 121 -58 221 -59 223 -2 1
-8 -15 -14 -35z"/>
<path d="M13097 8147 c-66 -254 -140 -545 -167 -647 -108 -417 -180 -698 -180
-704 0 -3 223 -6 495 -6 272 0 495 2 495 5 0 2 -102 359 -226 792 -124 434
-240 838 -256 898 -17 61 -34 113 -37 117 -3 4 -59 -201 -124 -455z"/>
<path d="M10450 4743 c114 -456 209 -835 212 -843 4 -13 418 1627 418 1658 0
9 -98 12 -418 12 l-418 0 206 -827z"/>
</g>
</svg>
